<?xml version="1.0" standalone="no"?>
<!DOCTYPE svg PUBLIC "-//W3C//DTD SVG 1.0//EN" "http://www.w3.org/TR/2001/REC-SVG-20010904/DTD/svg10.dtd">
<svg xmlns="http://www.w3.org/2000/svg" xmlns:xlink="http://www.w3.org/1999/xlink" id="body_1" width="72" height="54">

<g transform="matrix(0.10714286 0 0 0.10714286 9 -0)">
    <path d="M504 252C 504 321.5879 479.39697 380.98486 430.19092 430.19092C 380.98486 479.39697 321.5879 504 252 504C 182.41212 504 123.01516 479.39697 73.8091 430.19092C 24.603033 380.98486 0 321.5879 0 252C 0 182.41212 24.603033 123.01516 73.8091 73.8091C 123.01516 24.603033 182.41212 0 252 0C 321.5879 0 380.98486 24.603033 430.19092 73.8091C 479.39697 123.01516 504 182.41212 504 252C 504 254.93246 503.94885 257.864 503.8465 260.79468" stroke="none" fill="#FFD05B" fill-rule="nonzero" />
    <path d="M94.5 94.5L409.5 94.5L409.5 409.5L94.5 409.5z" stroke="none" fill="#324A5E" fill-rule="nonzero" />
	<g>
        <path d="M122.1 168.6L382 168.6L382 381.90002L122.1 381.90002z" stroke="none" fill="#FFFFFF" fill-rule="nonzero" />
        <path d="M122.1 121.9L154.6 121.9L154.6 141.1L122.1 141.1z" stroke="none" fill="#FFFFFF" fill-rule="nonzero" />
	</g>
    <path d="M175.7 121.9L208.2 121.9L208.2 141.1L175.7 141.1z" stroke="none" fill="#F9B54C" fill-rule="nonzero" />
    <path d="M229.4 121.9L261.9 121.9L261.9 141.1L229.4 141.1z" stroke="none" fill="#54C0EB" fill-rule="nonzero" />
    <path d="M144.1 188.1L181.5 188.1L181.5 211.70001L144.1 211.70001z" stroke="none" fill="#F1543F" fill-rule="nonzero" />
    <path d="M204.1 188.1L359.90002 188.1L359.90002 211.70001L204.1 211.70001z" stroke="none" fill="#FF7058" fill-rule="nonzero" />
    <path d="M322.5 238.4L359.9 238.4L359.9 262L322.5 262z" stroke="none" fill="#84DBFF" fill-rule="nonzero" />
    <path d="M144.1 238.4L299.90002 238.4L299.90002 262L144.1 262z" stroke="none" fill="#54C0EB" fill-rule="nonzero" />
    <path d="M144.1 288.6L181.5 288.6L181.5 312.2L144.1 312.2z" stroke="none" fill="#FFD05B" fill-rule="nonzero" />
    <path d="M204.1 288.6L359.90002 288.6L359.90002 312.2L204.1 312.2z" stroke="none" fill="#F9B54C" fill-rule="nonzero" />
    <path d="M322.5 338.8L359.9 338.8L359.9 362.4L322.5 362.4z" stroke="none" fill="#4CDBC4" fill-rule="nonzero" />
    <path d="M144.1 338.8L299.90002 338.8L299.90002 362.4L144.1 362.4z" stroke="none" fill="#2C9984" fill-rule="nonzero" />
	<g>
	</g>
	<g>
	</g>
	<g>
	</g>
	<g>
	</g>
	<g>
	</g>
	<g>
	</g>
	<g>
	</g>
	<g>
	</g>
	<g>
	</g>
	<g>
	</g>
	<g>
	</g>
	<g>
	</g>
	<g>
	</g>
	<g>
	</g>
	<g>
	</g>
</g>
</svg>